<svg width="23" height="24" viewBox="0 0 23 24" fill="none" xmlns="http://www.w3.org/2000/svg">
  <path d="M22.1862 21.5752L22.1861 21.5751L16.6896 16.0829C18.0257 14.4949 18.8349 12.4492 18.8349 10.2117C18.8349 5.17704 14.7393 1.08594 9.7091 1.08594C4.67894 1.08594 0.583313 5.17704 0.583313 10.2117C0.583313 15.2464 4.67894 19.3375 9.7091 19.3375C11.9423 19.3375 13.992 18.5283 15.5803 17.1921L21.0726 22.6844C21.2259 22.8378 21.4256 22.9149 21.6294 22.9149C21.8332 22.9149 22.0328 22.8378 22.1862 22.6844C22.4935 22.3771 22.4935 21.8825 22.1862 21.5752ZM17.2647 10.2117C17.2647 14.3761 13.8735 17.7673 9.7091 17.7673C5.54468 17.7673 2.15347 14.3761 2.15347 10.2117C2.15347 6.04731 5.54468 2.6561 9.7091 2.6561C13.8736 2.6561 17.2647 6.04303 17.2647 10.2117Z" fill="black" stroke="black" stroke-width="0.5" />
</svg>