<svg width="51" height="69" viewBox="0 0 51 69" fill="none" xmlns="http://www.w3.org/2000/svg">
  <path d="M50.5859 18.4464C50.6465 17.8653 50.3204 17.313 49.7824 17.0853C48.5496 16.5635 47.2442 16.2771 45.9335 16.2204C46.241 15.8133 46.5222 15.3837 46.7726 14.9327C48.4748 11.8663 48.623 8.12671 47.1686 4.9292C46.9268 4.39746 46.3655 4.08609 45.7868 4.16207C42.3039 4.61876 39.2084 6.7221 37.5061 9.78862C37.1761 10.3829 36.9054 11.0027 36.6926 11.6388C35.6763 10.3116 34.3637 9.20959 32.8363 8.44591C32.3142 8.18489 31.6823 8.29528 31.2795 8.71889C28.8594 11.2647 27.7761 14.8472 28.3818 18.3017C28.3826 18.3065 28.3837 18.3113 28.3846 18.3161C27.9949 18.1451 27.5937 17.9958 27.1826 17.8703C26.6239 17.6998 26.0192 17.9142 25.6929 18.3987C25.2329 19.0816 24.8566 19.8091 24.5636 20.5647C24.4792 20.5336 24.3914 20.5097 24.2999 20.4962C23.9509 20.4441 23.6012 20.4098 23.2518 20.3914C25.0602 18.02 25.8634 14.9755 25.4176 11.9899C25.3314 11.412 24.8777 10.9585 24.2999 10.8722C22.1161 10.5459 19.9005 10.888 17.9398 11.8028C18.0251 11.2509 18.0695 10.6902 18.0695 10.125C18.0695 6.61769 16.3839 3.27619 13.5605 1.18641C13.0909 0.838906 12.4494 0.838906 11.98 1.18641C9.15667 3.27605 7.47098 6.61769 7.47098 10.125C7.47098 10.6901 7.51534 11.2508 7.60062 11.8028C5.63996 10.8881 3.42451 10.5461 1.24055 10.8722C0.662713 10.9584 0.209209 11.412 0.122866 11.9899C-0.322933 14.9755 0.480063 18.02 2.28863 20.3914C1.93927 20.4098 1.58951 20.4441 1.24055 20.4962C0.662713 20.5824 0.209209 21.036 0.122866 21.6138C-0.322933 24.5996 0.480196 27.6441 2.28863 30.0155C1.93914 30.0339 1.58938 30.0681 1.24042 30.1203C0.66258 30.2065 0.209076 30.6601 0.122733 31.2378C-0.323066 34.2236 0.47993 37.2681 2.2885 39.6395C1.93914 39.6578 1.58938 39.6921 1.24042 39.7443C0.66258 39.8305 0.209076 40.2841 0.122733 40.8618C-0.0476962 42.0024 -0.0405234 43.1578 0.143588 44.2959C0.26075 45.0201 0.943396 45.512 1.66709 45.395C2.39131 45.2778 2.88347 44.5957 2.76618 43.8715C2.68076 43.344 2.64543 42.8116 2.65991 42.2799C4.98175 42.2116 7.20039 43.085 8.87054 44.755C10.5408 46.4252 11.415 48.6449 11.3457 50.9656C10.8004 50.981 10.2536 50.9429 9.71272 50.8526C8.9885 50.7318 8.30452 51.2207 8.18377 51.9442C8.06303 52.6679 8.55186 53.3524 9.27542 53.4732C9.88448 53.5748 10.4986 53.6255 11.113 53.6255C11.2225 53.6255 11.332 53.6228 11.4416 53.6194V67.5975C11.4416 68.3312 12.0363 68.9259 12.77 68.9259C13.5036 68.9259 14.0983 68.3312 14.0983 67.5975V53.6178C14.201 53.6206 14.3037 53.6234 14.4064 53.6234C17.1362 53.6234 19.8039 52.614 21.8481 50.7826C23.4155 51.5837 25.1741 52.0063 26.9409 52.0063C26.9622 52.0063 26.9834 52.0049 27.0046 52.0048C26.2896 57.1546 25.9267 62.3696 25.9267 67.5973C25.9267 68.3309 26.5216 68.9256 27.2551 68.9256C27.9886 68.9256 28.5835 68.3309 28.5835 67.5973C28.5835 62.4153 28.9363 57.2989 29.6371 52.2608C31.4757 53.5089 33.6648 54.1937 35.9047 54.1937C36.2234 54.1937 36.5434 54.1799 36.8633 54.1518C40.357 53.8454 43.5384 51.8744 45.3736 48.8793C45.6788 48.3812 45.6228 47.7421 45.2356 47.3047C44.069 45.9871 42.6143 44.9815 41.0138 44.3444C43.37 42.8386 45.1114 40.4696 45.8155 37.7203C45.9604 37.1544 45.7187 36.5602 45.2199 36.2563C44.6571 35.9133 44.0683 35.6241 43.4621 35.3894C45.8315 33.7256 47.4952 31.1686 48.0247 28.2824C48.1301 27.7078 47.8478 27.1319 47.3292 26.8631C46.9131 26.6475 46.4857 26.4609 46.0502 26.3014C48.5857 24.4603 50.2577 21.5929 50.5859 18.4464ZM11.3457 41.3431C9.02436 41.4135 6.80387 40.5385 5.13345 38.868C3.4629 37.1974 2.58857 34.9771 2.65831 32.6557C4.98003 32.5851 7.20012 33.4605 8.87054 35.1307C10.5411 36.8013 11.4154 39.0217 11.3457 41.3431ZM11.3457 31.719C9.02436 31.7895 6.80387 30.9144 5.13345 29.2438C3.4629 27.5733 2.58857 25.3531 2.65845 23.0316C4.98016 22.9612 7.20025 23.8363 8.87067 25.5068C10.5411 27.1774 11.4154 29.3977 11.3457 31.719ZM11.3457 22.0951C9.02436 22.1658 6.80387 21.2905 5.13345 19.62C3.4629 17.9494 2.58857 15.7292 2.65831 13.4077C4.98003 13.3375 7.20012 14.2123 8.87054 15.8829C10.5411 17.5534 11.4154 19.7737 11.3457 22.0951ZM12.7701 16.2678C11.0793 14.6758 10.1276 12.4876 10.1276 10.125C10.1276 7.76234 11.0793 5.57426 12.7701 3.98208C14.461 5.57412 15.4127 7.76234 15.4127 10.125C15.4127 12.4876 14.4608 14.6757 12.7701 16.2678ZM20.4066 48.492C18.736 50.1625 16.5166 51.0367 14.1944 50.9671C14.1246 48.6458 14.9989 46.4256 16.6695 44.7549C18.34 43.0843 20.5596 42.2093 22.8817 42.2797C22.9516 44.6012 22.0773 46.8214 20.4066 48.492ZM20.4066 38.868C18.736 40.5386 16.5166 41.4138 14.1944 41.3431C14.1246 39.0217 14.9989 36.8014 16.6694 35.1309C18.34 33.4603 20.5615 32.5856 22.8817 32.6559C22.9516 34.9771 22.0773 37.1974 20.4066 38.868ZM20.4066 29.244C18.736 30.9145 16.5166 31.7891 14.1944 31.7191C14.1246 29.3978 14.9989 27.1776 16.6695 25.5069C18.34 23.8363 20.5596 22.9617 22.8817 23.0317C22.9516 25.3532 22.0773 27.5734 20.4066 29.244ZM20.4066 19.62C18.736 21.2907 16.5166 22.1662 14.1944 22.0951C14.1246 19.7737 14.9989 17.5534 16.6695 15.8829C18.34 14.2123 20.5596 13.3371 22.8817 13.4077C22.9516 15.7292 22.0773 17.9494 20.4066 19.62ZM39.8289 11.0781C40.9755 9.01246 42.8697 7.56122 45.1208 6.98989C45.8264 9.20255 45.5963 11.5777 44.4497 13.6433C43.3029 15.7089 41.4087 17.1601 39.1576 17.7314C38.4523 15.5187 38.6823 13.1437 39.8289 11.0781ZM32.5407 11.336C34.481 12.6123 35.7963 14.6033 36.2043 16.9303C36.6122 19.2575 36.0526 21.5771 34.6622 23.4373C32.7218 22.161 31.4065 20.17 30.9986 17.843C30.5906 15.5159 31.1501 13.1963 32.5407 11.336ZM26.6636 49.3454C25.6309 49.3121 24.6078 49.0896 23.6576 48.6947C24.5701 47.3271 25.1692 45.7713 25.4133 44.1506C26.3869 45.7009 26.8252 47.5083 26.6636 49.3454ZM28.7426 41.6154C26.8776 40.9431 25.3202 39.6464 24.3206 37.9303C25.357 35.8895 25.7621 33.5467 25.4173 31.2377C25.41 31.1884 25.399 31.1406 25.3865 31.0933C26.8446 31.9832 28.0044 33.3042 28.712 34.9291C29.6553 37.0947 29.6566 39.4807 28.7426 41.6154ZM26.944 27.3747C26.1622 25.1711 26.3247 22.8154 27.3725 20.7701C29.4751 21.6979 31.0856 23.4247 31.8673 25.6283C32.649 27.8319 32.4866 30.1876 31.4388 32.2329C29.3362 31.3049 27.7257 29.5782 26.944 27.3747ZM42.5197 48.3364C41.0814 50.1599 38.9848 51.2991 36.6312 51.5055C34.2799 51.7127 32.0149 50.955 30.281 49.4097C31.7193 47.5863 33.816 46.4471 36.1696 46.2406C38.5227 46.034 40.7859 46.7911 42.5197 48.3364ZM38.2346 42.8051C36.0462 43.6955 33.6606 43.6386 31.5488 42.6727C32.3862 40.5065 34.0542 38.8002 36.2425 37.9098H36.2427C38.4308 37.0193 40.8164 37.0761 42.9283 38.0423C42.0911 40.2083 40.4229 41.9146 38.2346 42.8051ZM40.8138 33.8797C38.6922 34.9194 36.3086 35.0278 34.1348 34.2103C34.8204 31.9914 36.3665 30.1737 38.488 29.134C40.6093 28.0941 42.993 27.9857 45.1668 28.8034C44.4813 31.0222 42.9354 32.8398 40.8138 33.8797ZM43.8302 24.5854C41.7956 25.7865 39.4273 26.0793 37.1967 25.4324C37.7083 23.167 39.1089 21.235 41.1433 20.034C43.1779 18.8332 45.5463 18.5403 47.7766 19.1871C47.2652 21.4523 45.8647 23.3843 43.8302 24.5854Z" fill="#FEAD04" />
  <path d="M4.19427 50.727C3.84491 50.727 3.50219 50.5862 3.25512 50.3392C3.00804 50.0908 2.86591 49.7494 2.86591 49.3987C2.86591 49.0493 3.00804 48.7066 3.25512 48.4595C3.50219 48.2124 3.84491 48.0703 4.19427 48.0703C4.54363 48.0703 4.88635 48.2124 5.13342 48.4595C5.3805 48.7066 5.52263 49.0493 5.52263 49.3987C5.52263 49.7494 5.3805 50.0908 5.13342 50.3392C4.88635 50.5862 4.54363 50.727 4.19427 50.727Z" fill="#FEAD04" />
</svg>